<svg enable-background="new 0 0 2704.055 2704.018" height="2704.018" viewBox="0 0 2704.055 2704.018" width="2704.055" xmlns="http://www.w3.org/2000/svg"><path d="m893.048 2513.365 85.238 30.089 57.151-157.843-85.2-30.089zm-20.196-1063.113 41.315 58.408 21.221-68.284 68.414-21.332-58.502-41.23.978-71.618-57.403 42.833-67.808-23.047 23.047 67.817-42.805 57.384zm1507.095 390.453c-45.508-29.399-91.34 28.096-119.1 68.917l-42.033 61.855-13.908 20.42-41.621 61.184 156.996 101.504 55.475-81.604-115.113-74.47 30.248-44.49c10.152-14.943 41.361-12.055 44.965 10.34 3.615 22.395-9.008 47.603-9.008 47.603l104.447-20.644 62.395-91.759-86.951 17.142c-.001-.001 4.583-55.727-26.792-75.998zm-1616.031 404.763-62.368-41.938-20.569-13.825-61.799-41.585-107.735 148.9 82.369 55.391 78.996-109.179 44.938 30.184c15.073 10.152 11.328 40.168-11.709 43.074-23.038 2.943-48.572-9.781-48.572-9.781l18.65 101.074 92.635 62.303-15.511-84.156s56.993 5.719 78.53-24.035c31.216-43.169-26.662-88.723-67.855-116.427zm-263.631-242.113-14.672-19.302-43.96-57.795-186.843 57.516 58.632 77.095 149.422-46.056-90.874 123.152 58.623 77.115 113.576-153.932zm1516.475 192.962-19.703 14.59-58.967 43.765 65.471 177.274 78.641-58.314-52.354-141.857 131.043 83.449 78.67-58.354-163.879-104.279zm-751.004 220.726c-81.492-6.373-151.686 30.964-156.753 83.411-5.058 52.41 56.965 99.976 138.43 106.385 81.53 6.334 151.722-30.929 156.79-83.413 5.058-52.409-56.937-100.011-138.467-106.383zm-11.877 122.815c-23.941-1.844-42.172-15.91-40.682-31.338 1.491-15.406 22.125-26.363 46.084-24.462 23.969 1.825 42.153 15.837 40.709 31.263-1.518 15.371-22.096 26.42-46.111 24.537zm1223.658-1071.962-46.951-10.602-21.389 93.23-21.389 93.156-21.379 93.155 46.941 10.658 21.389-93.193 129.188 29.195 21.389-93.231-129.188-29.158zm-631.504 850.4-107.334 34.283-54.842 104.576-28.607-77.879-95.393 30.463 61.297 166.879 95.355-30.424-28.562-77.916 112.02 51.197 107.363-34.281-120.078-54.867zm-494.024-2318.296c-745.573 0-1352.009 606.407-1352.009 1352.028 0 745.451 606.436 1351.989 1352.009 1351.989 745.499 0 1352.045-606.538 1352.045-1351.989.001-745.621-606.546-1352.028-1352.045-1352.028zm0 2643.317c-712.056 0-1291.225-579.318-1291.225-1291.289v-.057h127.438c0-46.857 2.729-93.77 8.477-140.254l-126.533-15.316c6.316-52.147 15.724-103.347 28.068-153.408l123.524 30.369c11.225-45.554 25.199-90.418 41.799-134.164l-118.839-45.088c18.613-48.887 40.076-96.36 64.213-142.154l112.364 59.153c21.836-41.622 46.112-81.772 72.838-120.208l-104.343-72.289c29.661-42.76 61.772-83.674 96.24-122.501l94.842 84.12c31.124-35.082 64.38-68.283 99.453-99.323l-84.157-94.963c38.818-34.449 79.742-66.606 122.547-96.229l72.185 104.297c38.521-26.549 78.736-50.938 120.19-72.811l-59.201-112.309c45.833-24.184 93.296-45.684 142.203-64.278l45.181 118.868c43.737-16.545 88.638-30.557 134.172-41.771l-30.397-123.581c50.071-12.334 101.205-21.742 153.326-28.058l15.277 126.561c46.541-5.682 93.5-8.514 140.387-8.514v-127.419c52.613 0 104.501 3.223 155.503 9.372l-15.24 126.561c46.551 5.422 92.691 13.898 138.264 25.078l30.35-123.581c50.91 12.538 100.627 28.096 148.955 46.484l-45.115 118.868c43.812 16.617 86.654 35.957 128.201 57.719l59.08-112.365c46.141 24.277 90.594 51.33 133.193 80.822l-72.082 104.354c38.52 26.68 75.418 55.782 110.641 86.896l84.102-94.926c38.846 34.431 75.613 71.189 110.09 110.073l-94.812 84.176c31.039 35.102 60.039 72.064 86.709 110.67l104.354-72.289c29.531 42.665 56.564 87.193 80.879 133.344l-112.365 59.153c21.686 41.509 41.062 84.269 57.645 128.089l118.941-45.125c18.408 48.311 33.965 98 46.484 148.92l-123.562 30.369c11.105 45.59 19.619 91.795 25.098 138.355l126.543-15.316c6.166 51.05 9.389 102.938 9.389 155.627-.004 711.97-579.265 1291.288-1291.274 1291.288zm271.903-573.783-49.988 37.262-59.061-20.085 20.066 59.155-37.301 50.023 62.305-.875 35.957 50.918 18.557-59.618 59.602-18.446-50.91-36.014zm-184.281 67.5-1.379.074c-25.924 1.305-51.189 1.604-75.811 1.044 1.072-15.334 1.055-52.856-19.785-87.679-26.979-45.068-67.52-49.782-67.52-49.782s-15.017 37.952 11.934 83.039c16.702 27.909 41.305 44.863 57.654 53.731-37.318-1.471-73.071-4.918-107.176-9.967 2.366-15.278 4.928-49.074-10.796-82.312-21.203-44.715-58.782-52.875-58.782-52.875s-17.569 34.225 3.605 78.996c12.063 25.488 31.086 42.664 45.386 52.949-34.766-5.905-67.725-13.414-98.876-22.097 3.755-13.581 9.446-43.131-.885-74.171-14.029-42.293-46.792-53.602-46.792-53.602s-19.395 28.674-5.301 70.929c7.816 23.476 22.432 40.599 33.974 51.403-29.121-8.756-56.518-18.463-82.192-28.748 3.764-13.414 9.68-43.299-.745-74.637-14.066-42.236-46.755-53.508-46.755-53.508s-19.432 28.635-5.338 70.893c6.968 20.922 19.423 36.963 30.21 47.861-24.891-10.712-47.938-21.872-69.159-33.088 3.046-13.619 7.322-43.672-4.695-74.32-16.256-41.529-49.485-51.049-49.485-51.049s-17.886 29.624-1.611 71.097c5.748 14.626 14.15 26.512 22.6 35.938-30.173-17.55-55.688-34.615-76.257-49.576-3.279-15.353-12.045-43.783-35.092-66.887-33.098-33.219-69.233-28.506-69.233-28.506s-4.779 36.127 28.337 69.309c22.181 22.245 49.345 31.282 65.042 34.914 10.434 7.658 22.181 15.875 35.167 24.444-10.965-3.503-23.327-6.093-36.927-6.147-46.886-.188-69.178 28.617-69.178 28.617s22.06 28.972 68.917 29.157c38.781.149 68.842-19.283 78.195-26.084 19.861 11.683 41.678 23.569 65.572 35.231-15.547-2.607-35.604-3.576-56.741 2.348-45.135 12.613-58.688 46.43-58.688 46.43s29.167 21.854 74.338 9.186c36.172-10.154 59.415-35.79 67.314-45.646 23.243 10.508 48.124 20.662 74.636 30.126-16.004-.931-36.945.354-58.036 9.186-43.234 18.072-52.54 53.286-52.54 53.286s31.598 18.072 74.85 0c34.924-14.59 54.897-43.113 61.39-53.678 23.811 7.77 48.917 14.85 75.075 21.166-17.542 1.844-40.616 7.116-62.266 21.016-42.805 27.481-46.168 66.886-46.168 66.886s37.225 13.396 80.039-14.066c33.312-21.37 49.485-54.18 55.065-67.798 27.891 5.924 56.946 10.898 87.268 14.568-19.143 3.651-45.19 11.85-68.432 30.443-43.131 34.561-42.265 77.468-42.265 77.468s41.706 10.247 84.837-24.312c34.496-27.612 48.059-66.29 52.121-80.729 28.301 2.684 57.645 4.174 87.894 4.453-19.824 5.18-44.762 15.072-66.887 34.076-45.46 39.162-42.898 85.647-42.898 85.647s45.599 9.539 91.078-29.53c37.012-31.822 50.127-75.326 53.732-90.455 9.203-.223 18.389-.428 27.76-.894l1.416-.074c2.162-.112 3.979-1.212 5.152-2.795.922-1.229 1.389-2.758 1.322-4.397-.166-3.801-3.396-6.688-7.189-6.502zm29.717-541.328c1.557 9.314 3.215 19.805 6.447 30.983 3.102 11.179 6.408 23.511 11.615 35.753 4.984 12.389 10.416 25.45 17.496 38.307 7.098 12.836 14.951 25.709 23.475 38.547 4.686 6.055 9.119 12.408 14.15 18.463l15.707 18.705c5.17 5.422 9.863 10.77 15.762 15.949 6.307 5.385 12.742 11.086 19.162 15.93 6.361 4.603 12.436 9.596 19.014 13.639 6.557 3.855 12.947 8.011 19.395 11.271 12.994 7.172 25.832 13.19 38.426 17.887 12.408 4.844 24.426 8.719 35.727 11.514 44.713 12.018 76.154 9.873 76.154 9.873l.484-.055c.633 0 1.211-.504 1.35-1.155.262-.839-.279-1.546-1.09-1.696 0 0-28.793-6.967-69.588-24.388-20.307-8.813-43.549-20.271-66.857-35.082-11.736-7.397-23.297-15.688-34.541-24.742-5.701-4.564-10.881-9.54-16.461-14.327l-15.539-15.613c-9.66-10.863-19.469-22.135-28.18-33.666-8.803-11.478-17.066-23.289-24.379-34.935-14.746-23.345-26.455-46.409-34.979-66.792-17.207-40.951-21.799-70.334-21.799-70.334-.121-.596-.605-1.211-1.305-1.266-.773-.074-1.49.521-1.658 1.342l-.094.428s-.885 7.732-.373 21.184c.569 6.724.803 14.997 2.479 24.276zm691.478-173.215-72.029 53.844-85.236-28.934 29.018 85.2-53.873 71.991 89.961-1.1 51.916 73.388 26.643-85.834 85.844-26.698-73.361-51.926zm-603.566-816.084 1.416.541c25.887 10.564 50.666 21.799 74.422 33.573-7.992 14.327-25.189 50.92-20.746 94.628 5.758 56.266 43.178 79.331 43.178 79.331s31.934-30.146 26.232-86.411c-3.566-34.914-19.869-62.693-31.756-78.809 35.742 18.48 69.074 38.156 100.059 58.668-9.287 13.824-27.221 45.646-27.043 85.257.26 53.323 33.191 78.382 33.191 78.382s32.744-25.376 32.549-78.662c-.15-30.405-10.881-55.855-20.123-72.418 31.236 21.63 59.975 44.024 86.412 66.699-9.855 11.514-28.934 37.747-33.023 72.755-5.6 47.677 21.184 73.687 21.184 73.687s31.98-19.152 37.541-66.793c3.074-26.531-3.381-49.932-9.725-65.713 24.434 21.836 46.736 43.84 67.1 65.62-9.791 11.346-29.195 37.802-33.33 73.126-5.553 47.641 21.182 73.576 21.182 73.576s32.02-19.098 37.516-66.738c2.775-23.623-2.041-44.976-7.602-60.514 19.385 21.816 36.777 43.206 52.363 63.831-9.205 11.905-27.109 39.293-29.383 74.71-3.074 47.864 25.004 72.363 25.004 72.363s30.982-20.717 34.029-68.637c1.09-16.88-1.695-32.307-5.637-45.367 21.428 30.873 38.512 59.154 51.74 83.133-3.793 16.471-8.197 48.199 3.754 81.27 17.104 47.509 54.479 59.396 54.479 59.396s21.182-33.033 4.004-80.525c-11.457-31.84-33.852-53.043-47.527-63.736-6.689-12.26-14.402-25.637-23.158-39.927 9.1 8.439 19.973 16.619 33.219 22.897 45.666 21.612 80.59 3.672 80.59 3.672s-8.311-38.326-53.938-59.938c-37.449-17.662-75.662-12.632-88.209-10.247-14.039-20.457-29.885-41.995-47.855-64.278 13.965 9.67 33.09 19.769 56.426 23.643 49.773 8.291 78.455-18.519 78.455-18.519s-18.529-34.617-68.32-42.908c-39.945-6.595-74.32 7.808-86.523 13.825-17.857-20.848-37.477-42.088-58.986-63.402 15.186 8.197 36.164 16.471 60.729 17.496 50.426 2.049 75.578-28.004 75.578-28.004s-22.562-32.083-72.988-34.15c-40.691-1.715-73.201 16.953-84.391 24.313-19.684-18.464-40.961-36.835-63.615-54.962 17.961 6.241 42.861 11.645 70.361 7.974 54.291-7.303 75.549-44.118 75.549-44.118s-30.184-30.127-84.492-22.86c-42.441 5.682-73.119 30.349-84.65 40.987-24.5-18.519-50.584-36.628-78.494-54.066 20.336 5.197 49.484 9.092 80.664 1.527 57.85-13.973 76.574-56.267 76.574-56.267s-35.959-29.027-93.809-15.017c-46.709 11.291-77.432 43.039-87.697 55-26.381-15.538-54.346-30.369-83.729-44.454 21.705 3.969 50.547 5.701 80.812-2.758 62.201-17.382 80.926-63.961 80.926-63.961s-40.133-30.09-102.305-12.762c-50.631 14.159-83.254 50.62-93.688 63.755-9.082-3.986-18.146-7.992-27.508-11.812l-1.379-.559c-2.189-.876-4.453-.69-6.354.335-1.443.783-2.617 2.049-3.307 3.707-1.501 3.785.315 8.07 4.052 9.615zm-992.744 712.457c-3.046 11.18-6.111 22.32-8.915 33.797l-.4 1.696c-.652 2.683-.047 5.253 1.472 7.266 1.183 1.564 2.841 2.683 4.863 3.167 4.63 1.155 9.288-1.695 10.387-6.353l.438-1.677c7.76-31.748 16.498-62.321 26.019-91.797 18.119 6.82 63.383 20.309 112.858 7.695 64.063-16.32 84.297-63.494 84.297-63.494s-40.337-31.805-104.372-15.502c-39.666 10.117-68.963 33.648-85.563 50.136 15.222-44.452 32.222-86.298 50.592-125.61 17.616 8.365 57.478 23.568 103.115 16.601 61.595-9.465 84.93-51.851 84.93-51.851s-34.934-33.537-96.528-24.109c-35.073 5.403-62.628 22.134-80.169 35.66 19.627-39.797 40.55-76.836 62.218-111.266 15.008 9.428 48.59 26.94 89.765 25.619 56.033-1.678 81.465-37.115 81.465-37.115s-27.611-33.647-83.626-31.877c-31.151.969-57.049 12.408-74.208 22.432 21.025-31.971 42.6-61.502 64.25-88.74 14.831 9.354 48.73 27.201 90.25 25.896 56.015-1.732 81.418-37.131 81.418-37.131s-27.593-33.686-83.58-31.896c-27.76.875-51.589 10.098-68.609 19.189 21.882-26.139 43.625-49.912 64.78-71.469 15.352 8.59 50.062 24.555 91.349 21.108 55.865-4.694 79.341-41.36 79.341-41.36s-29.242-32.195-85.135-27.52c-19.703 1.659-37.048 7.529-51.459 14.328 31.952-30.033 61.669-54.626 87.091-74.021 19.768 1.528 57.393 1.025 93.361-18.371 51.972-27.965 59.294-73.201 59.294-73.201s-41.828-18.799-93.78 9.223c-34.654 18.649-55.474 48.217-65.545 65.88-12.846 9.726-26.8 20.792-41.622 33.183 8.002-11.832 15.371-25.785 20.243-41.883 17.141-56.509-9.585-93.771-9.585-93.771s-42.898 16.153-60.012 72.643c-13.955 46.205-1.639 89.486 3.298 103.683-21.193 19.731-43.355 41.716-65.991 66.29 8.757-17.774 17.122-41.566 17.578-69.141 1.006-58.986-34.915-87.491-34.915-87.491s-36.834 27.295-37.812 86.317c-.754 47.268 21.743 84.53 30.789 97.609-20.979 24.184-42.135 50.453-63.039 78.921 6.847-18.929 12.716-44.584 9.707-73.034-6.27-58.65-45.33-82.536-45.33-82.536s-33.229 31.58-27.015 90.214c5.03 47.342 32.204 81.696 42.647 93.359-17.951 25.916-35.521 53.658-52.549 82.928 4.089-21.816 6.018-51.516-2.925-82.611-17.737-61.537-64.018-79.76-64.018-79.76s-29.577 40.058-11.876 101.559c13.787 47.864 47.519 79.164 61.938 90.809-17.187 31.506-33.638 64.762-48.99 100.031 2.496-24.407 1.984-58.801-12.091-93.547-26.084-64.408-78.195-78.772-78.195-78.772s-27.323 46.54-1.258 111.003c20.914 51.553 62.694 81.848 78.633 91.946-13.424 33.181-25.768 68.06-36.993 104.446.866-25.785-2.096-59.452-17.076-93.007-30.769-68.918-87.799-82.573-87.799-82.573s-27.9 51.607 2.86 120.488c25.046 56.114 72.779 87.565 89.734 97.364zm641.872 428.498c16.162-16.115 37.365-43.465 53.965-66.14l15.724 34.877c20.094 38.94 95.923 172.339 228.708 250.087 75.408 44.193 154.172 66.588 234.398 66.588 24.389 0 48.842-2.088 72.494-6.373 87.893-15.705 142.547-64.09 168.752-87.268l8.57-7.695c10.182-9.223 18.816-17.01 22.385-17.01 1.463 0 5.143.484 13.033 3.876 8.131 3.429 16.73 5.216 25.627 5.216 35.791 0 68.553-29.53 68.553-61.948 0-27.667-23.588-68.991-58.455-86.485-37.449-18.744-82.537-16.973-129.709 5.477-16.051 7.602-39.732 12.018-64.932 12.018-24.014 0-47.527-3.895-66.186-10.898-74.982-28.544-117.488-92.355-139.781-140.853-7.023-15.185-13.619-32.046-19.051-47.137 20.309 2.533 47.379 3.129 74.105-.354 93.809-12.073 173.754-79.238 213.961-179.734 19.664-49.205 23.373-87.678 26.01-115.719 1.387-13.73 2.561-26.735 5.355-32.399 1.184-2.347 2.906-3.446 9.213-7.546 9.082-5.645 21.658-13.507 31.842-30.854 6.549-11.346 7.078-24.779 1.416-37.02-10.732-22.822-41.492-37.449-59.938-40.598-4.824-.708-13.629-2.254-24.295-2.254-38.986 0-72.121 19.338-95.596 55.855-15.855 24.762-44.789 51.236-73.129 76.184-49.576 43.895-90.91 55.297-121.4 60.327-13.293 2.273-23.541 3.317-30.834 3.578-4.406-15.092-10.135-41.083-11.533-76.295-.875-20.941-.979-53.472-1.07-91.145-.066-77.562-.205-174.015-7.77-233.263-4.984-39.312-26.344-172.469-92.084-228.213-9.949-8.477-18.959-14.773-26.85-20.346-18.863-13.115-25.943-18.09-29.418-37.635-3.4-18.594-.811-41.901 2.33-68.823 2.934-26.026 6.307-55.558 5.775-90.454-.578-26.699-27.527-60.794-49.531-71.04-14.439-6.838-38.893-7.9-52.242-7.9-45.777 0-58.222 10.844-62.274 14.29-25.469 21.947-36.601 50.174-31.3 79.406 1.378 7.751 4.387 17.569 8.02 30.146 6.615 21.984 15.557 52.167 14.989 70.146-1.249 47.622-7.257 73.092-10.937 78.643-2.05 3.02-8.319 9.483-14.467 15.65-17.812 17.979-44.557 45.181-65.237 84.68-27.658 52.764-31.738 99.526-39.023 184.429l-2.497 27.911c-4.22 46.912-6.912 100.029-9.381 146.85-2.636 51.701-5.086 100.515-8.57 116.948-8.626 40.765-8.832 92.709-6.13 114.954 3.68 31.207-3.913 62.657-21.892 90.846-58.427 91.461-114.805 127.084-201.18 127.084-20.41 0-42.367-1.846-67.267-5.943-92.616-15.24-179.083-66.066-220.603-90.549l-1.983-1.154c-18.753-11.049-40.15-16.824-61.968-16.824-34.347 0-66.076 14.252-78.903 35.623-5.776 9.707-18.492 34.896-9.921 58.186 4.77 12.706 14.979 22.301 28.767 26.865 9.558 3.168 17.923 4.192 24.593 4.9 9.418 1.193 13.293 1.565 19.199 6.652 8.132 6.744 17.914 16.99 30.49 29.939 22.432 23.4 53.239 55.483 98.838 93.641 89.354 74.934 185.659 111.861 302.952 116.352 107.096 4.005 168.589-21.669 257.273-110.355zm741.53-539.334c.064.037.139.074.205.111-.148.112-.373.242-.521.354.101-.167.214-.299.316-.465zm-1362.368 402.862c-8.999-9.408-16.721-17.364-23.913-24.239 13.777-14.495 29.809-22.097 29.986-22.189.765-.354 1.286-.97 1.966-1.416 49.205 28.151 128.658 69.289 215.46 83.468 27.668 4.49 52.586 6.726 75.875 6.726 104.531 0 178.059-45.386 245.941-151.62 24.686-38.828 35.101-82.238 29.95-125.76-2.189-18.986-1.556-64.744 5.403-97.796 4.313-20.419 6.707-66.662 9.641-125.164 2.357-46.337 5.096-98.913 9.241-144.839l2.385-28.096c7.07-80.58 10.499-120.953 33.275-164.328 16.861-32.38 39.47-55.24 55.894-71.916 8.925-9.036 16.088-16.209 20.867-23.475 4.425-6.615 17.718-26.549 19.907-106.758.633-23.754-7.238-52.875-14.644-78.064 7.89 1.398 16.479 2.366 25.711 2.366 4.006 0 8.235-.148 12.483-.521 17.058-1.566 30.769-4.901 41.622-8.533-.988 19.004-2.889 36.609-4.732 52.707-3.457 31.114-6.568 57.905-1.678 84.438 7.49 40.949 29.717 56.601 51.236 71.617 7.285 5.068 14.812 10.377 22.842 17.215 33.49 28.469 62.545 104.801 73.873 194.455 7.08 55.986 7.172 150.633 7.248 226.686.129 38.212.203 71.17 1.043 93.211 2.039 47.863 10.918 81.288 16.58 98.335.457 1.509.652 3.075 1.203 4.546.586 1.845 1.602 3.54 2.311 5.31.689 1.714 1.191 2.888 1.303 3.13l5.758 12.949 1.742.298c4.471 6.634 9.279 12.987 15.436 18.017 8.365 6.801 16.592 12.297 25.627 15.596 9.037 3.223 17.271 4.787 23.477 5.216 5.98.688 10.098.186 10.098.186l2.078-.186c.166 0 .539-.149.885-.279.744-.597 1.043-1.714.344-2.646 0 0-5.719-7.975-14.645-19.433-3.344-4.285-6.67-9.558-10.182-15.017 7.1-.783 14.449-1.714 22.357-3.056 37.449-6.187 88.107-20.159 147.84-72.886 26.957-23.736 54.494-48.926 74.123-75.047 4.564.076 16.852.709 33.518 5.256 5.953 1.582 10.871 4.527 14.691 7.508-2.795 10.861-4.072 22.748-5.348 35.957-2.498 26.234-5.57 58.932-22.461 101.019-48.85 121.96-143.525 143.144-171.359 146.777-10.863 1.397-21.668 2.124-32.008 2.124-40.785 0-63.998-10.844-63.998-10.844l-54.684-27.351 17.281 58.65c.67 2.272 16.525 55.987 36.797 99.863 26.586 57.534 77.477 133.492 169.273 168.296 24.508 9.26 54.775 14.439 85.031 14.439 32.67 0 63.15-5.944 86.227-16.639 3.727 11.887 10.293 29.811 20.252 46.914-6.084 4.621-12.119 9.986-18.641 15.837l-8.234 7.396c-36.08 32.046-78.42 63.291-142.809 74.749-20.652 3.688-41.828 5.552-63.113 5.552-70.604 0-140.387-19.99-207.523-59.303-95.662-56.062-170.309-154.77-207.756-227.301l-53.63-119.314-26.783 39.257c-.484.614-47.528 69.773-74.646 96.751-78.53 78.53-126.841 98.467-217.677 94.907-104.931-4.08-190.988-37.15-270.832-104.092-43.409-36.237-73.126-67.11-94.785-89.616zm-238.647 94.646-63.896-46.299 31.151-72.513-26.177-95.019-184.766 25.339 26.177 95.019 83.794-11.458-25.264 84.809 65.162 59.937-77.878 33.033 26.214 95.074 171.658-72.903zm1033.435-475.264c23.586 0 29.455-42.218 30.266-77.654.633-30.797-4.695-52.818-15.25-63.662-4.918-4.955-10.871-7.564-17.773-7.564-10.127 0-33.806 7.229-35.818 73.965-.978 32.941 3.801 54.516 14.729 65.769 6.006 6.111 13.756 9.146 23.846 9.146zm-9.139-132.671c9.371 0 14.494 11.57 14.029 31.599-.336 19.974-4.221 34.468-12.744 34.468-8.506 0-17.439-4.658-16.656-33.258.867-28.469 10.248-32.809 15.371-32.809zm-1055.802 254.427c0 571.566 464.998 1036.639 1036.612 1036.639 571.577 0 1036.639-465.072 1036.639-1036.639v-.057h127.119c-.111-46.857-2.758-93.77-8.42-140.254l-126.283 15.09c-5.059-41.808-12.623-82.891-22.543-123.041l123.729-30.404c-11.234-45.554-25.207-90.418-41.863-134.164l-119.129 45.199c-14.922-39.182-32.119-77.188-51.449-113.93l112.934-59.358c-21.893-41.622-46.205-81.772-72.867-120.208l-104.996 72.605c-23.773-34.412-49.625-67.26-77.271-98.503l95.559-84.772c-31.143-35.082-64.324-68.283-99.379-99.323l-84.791 95.485c-31.207-27.668-64.062-53.471-98.438-77.264l72.588-105.117c-38.586-26.549-78.764-50.938-120.191-72.811l-59.357 113.036c-36.77-19.358-74.852-36.593-114.014-51.497l45.17-119.258c-43.83-16.545-88.75-30.557-134.189-41.771l-30.361 123.729c-40.178-9.91-81.23-17.457-123.059-22.523l15.156-126.283c-46.549-5.682-93.436-8.514-140.263-8.514v127.231h-.028c-42.293 0-84.036 2.627-125.053 7.565l-15.306-126.283c-46.41 5.422-92.662 13.898-138.206 25.078l30.36 123.729c-40.774 10.062-80.617 22.563-119.37 37.338l-45.162-119.295c-43.83 16.617-86.728 35.957-128.183 57.719l59.396 113.036c-37.039 19.487-72.801 41.192-106.999 64.892l-72.589-105.117c-38.604 26.68-75.493 55.782-110.576 86.896l84.707 95.485c-31.272 27.723-60.831 57.311-88.544 88.61l-95.615-84.772c-30.983 35.102-60.095 72.064-86.738 110.67l104.996 72.623c-23.699 34.226-45.367 69.942-64.892 106.943l-112.942-59.358c-21.827 41.509-41.138 84.269-57.738 128.089l119.24 45.236c-14.747 38.717-27.23 78.586-37.281 119.371l-123.757-30.443c-11.16 45.59-19.591 91.795-25.059 138.355l126.292 15.09c-4.968 41.045-7.596 82.834-7.596 125.22zm1036.612-976.478c538.432 0 976.469 438 976.469 976.479 0 538.365-438.037 976.46-976.469 976.46-538.469 0-976.432-438.095-976.432-976.46 0-538.479 437.963-976.479 976.432-976.479zm-114.386 842.65h1.276c15.446-1.062 25.339-28.972 25.339-71.172 0-37.318-2.795-75.641-24.454-76.854-.438-.074-.689-.074-1.043-.074-14.207 0-31.114 13.415-31.114 76.928-.001 64.223 21.025 71.172 29.996 71.172zm-2.767-133.771c8.375.391 9.912 15.277 9.912 33.164 0 17.756-4.07 30.182-10.358 30.572-6.195.411-12.809-7.004-12.809-30.572-.001-23.662 5.43-33.592 13.255-33.164zm-28.328 316.171c.978-.056 9.501-.894 18.845-8.999.885-.876 1.835-1.676 2.636-2.422 8.804 10.918 25.703 27.406 52.047 35.678 7.564 2.479 15.445 3.689 23.736 3.689 24.276 0 45.795-10.098 55.464-15.501 2.469 2.087 5.701 4.694 9.242 7.526 8.066 6.205 14.168 7.416 17.848 7.416.746 0 2.795-.225 3.438-.504 3.037-.837 5.365-3.371 5.916-6.445.465-3.168-.885-6.242-3.354-8.142-.158-.038-13.928-9.912-18.586-26.233-2.998-10.805.568-28.691 2.236-34.635.867-3.596-.652-7.415-3.855-9.316-3.271-1.881-7.277-1.322-9.875 1.305-1.082 1.062-10.089 10.322-13.368 22.58-1.723 6.372-2.655 11.926-3.223 15.557-7.126 4.51-27.099 15.614-47.947 13.322-21.584-2.57-41.007-6.838-59.61-33.387-2.888-3.559-6.996-19.377-8.859-31.916-.717-4.377-4.723-7.601-9.176-6.949-4.322.56-7.564 4.473-7.219 8.869.801 9.576 1.583 26.959.4 32.885-2.729 13.861-11.766 20.567-12.11 20.754-3.027 2.161-4.173 5.926-3.027 9.465 1.377 3.447 4.776 5.72 8.401 5.403z" fill="#00acd0"/></svg>