<svg enable-background="new 0 0 2704.037 2704.018" height="2704.018" viewBox="0 0 2704.037 2704.018" width="2704.037" xmlns="http://www.w3.org/2000/svg"><path d="m892.993 2513.365 85.237 30.089 57.142-157.843-85.2-30.089zm953.005-195.069-107.354 34.283-54.832 104.576-28.58-77.879-95.391 30.463 61.258 166.879 95.354-30.424-28.561-77.916 112.047 51.197 107.336-34.281-120.08-54.867zm-580.288 98.747c-81.476-6.373-151.696 30.964-156.726 83.411-5.104 52.41 56.937 99.976 138.43 106.385 81.493 6.334 151.695-30.929 156.742-83.413 5.069-52.409-56.935-100.011-138.446-106.383zm-11.888 122.815c-23.94-1.844-42.162-15.91-40.671-31.338 1.489-15.406 22.115-26.363 46.073-24.462 23.98 1.825 42.199 15.837 40.711 31.263-1.492 15.371-22.097 26.42-46.113 24.537zm-906.984-834.322-63.888-46.299 31.134-72.513-26.157-95.019-184.767 25.339 26.177 95.019 83.803-11.458-25.264 84.809 65.153 59.937-77.84 33.033 26.177 95.074 171.647-72.903zm153.391 297.819-14.683-19.302-43.95-57.795-186.833 57.516 58.614 77.095 149.44-46.056-90.827 123.152 58.576 77.115 113.576-153.932zm1575.843-514.891c.691-15.725-.652-33.797-6.633-52.373-17.01-52.949-57.682-67.537-57.682-67.537s-24.631 35.549-7.6 88.536c12.594 39.144 40.484 64.837 54.197 75.604-11.664 27.611-25.152 56.602-40.766 86.617 1.844-19.061 1.193-44.418-8.627-70.166-19.674-52-61.109-64.352-61.109-64.352s-22.711 36.759-2.926 88.74c14.625 38.512 43.914 62.75 58.166 72.773-16.674 30.182-35.473 61.147-56.674 92.559 2.57-19.543 3.018-47.714-7.883-76.406-19.748-51.98-61.184-64.426-61.184-64.426s-22.656 36.797-2.869 88.777c14.494 38.156 43.354 62.303 57.738 72.494-23.234 32.921-49.131 66.159-78.027 99.248 5.605-21.24 10.227-52.949 1.844-86.82-14.85-60.049-58.855-79.275-58.855-79.275s-29.961 37.578-15.131 97.57c11.029 44.51 40.207 75.215 54.59 88.163-29.008 31.822-60.887 63.384-95.818 94.292 8.775-21.5 19.172-57.309 13.322-97.496-9.561-64.893-54.014-89.766-54.014-89.766s-35.566 36.611-26.045 101.503c7.338 50.136 36.963 86.448 50.117 100.44-23.365 19.973-48.049 39.629-74.172 58.855l-1.377 1.062c-3.82 2.795-4.621 8.143-1.863 11.979 1.229 1.659 2.943 2.739 4.807 3.204 2.346.596 4.973.188 7.152-1.397l1.436-1.024c9.445-6.949 18.5-14.01 27.594-21.072 15.463 11.813 62.506 43.541 123.393 45.051 74.879 1.919 111.527-43.355 111.527-43.355s-34.281-47.005-109.197-48.943c-36.424-.912-68.359 9.186-91.646 19.824 29.045-24.164 56.266-48.758 81.51-73.705 15.354 10.75 59.061 37.449 114.266 36.965 69.01-.691 101.225-43.542 101.225-43.542s-33.053-42.2-102.062-41.548c-37.205.373-68.898 13.023-90.307 24.631 26.439-27.519 50.641-55.278 72.943-83.058 16.172 8.756 57.738 27.686 106.848 22.06 63.16-7.23 88.537-49.578 88.537-49.578s-34.318-35.492-97.498-28.226c-31.969 3.632-58.445 16.768-76.873 28.878 20.348-26.791 39.033-53.472 55.934-79.816 14.996 5.18 56.916 16.768 101.855 3.428 56.135-16.674 72.418-59.19 72.418-59.19s-36.869-26.68-93.006-10.023c-27.238 8.104-48.516 23.308-63.252 36.815 18.129-30.015 34.131-59.453 48.291-87.921 15.725 3.315 58.52 9.539 101.262-9.073 53.656-23.382 64.611-67.557 64.611-67.557s-39.814-22.041-93.473 1.416c-24.947 10.862-43.652 27.519-56.602 42.273 13.844-30.033 25.506-58.65 35.457-85.535 14.828-.895 59.227-6.092 96.32-36.592 45.201-37.188 43.617-82.686 43.617-82.686s-44.342-10.285-89.541 26.959c-12.932 10.676-22.936 22.806-30.742 34.711 5.721-18.371 10.547-35.437 14.57-50.975 12.316-15.894 31.488-46.094 35.398-85.164 5.814-58.277-27.35-89.43-27.35-89.43s-38.66 24.016-44.455 82.294c-4.041 40.299 9.857 74.953 18.818 92.503-8.064 30.633-19.224 67.168-34.504 107.803zm-724.119-1488.464c-745.547 0-1351.953 606.407-1351.953 1352.028 0 745.451 606.406 1351.989 1351.953 1351.989 745.508 0 1352.084-606.538 1352.084-1351.989 0-745.621-606.576-1352.028-1352.084-1352.028zm0 2643.317c-712.046 0-1291.215-579.318-1291.215-1291.289v-.057h127.438c.017-46.857 2.721-93.77 8.477-140.254l-126.525-15.316c6.298-52.147 15.727-103.347 28.06-153.408l123.544 30.369c11.197-45.554 25.17-90.418 41.771-134.164l-118.85-45.088c18.63-48.887 40.075-96.36 64.221-142.154l112.366 59.153c21.836-41.622 46.15-81.772 72.829-120.208l-104.336-72.289c29.662-42.76 61.8-83.674 96.23-122.501l94.871 84.12c31.131-35.082 64.352-68.283 99.433-99.323l-84.156-94.963c38.828-34.449 79.741-66.606 122.557-96.229l72.178 104.297c38.547-26.549 78.735-50.938 120.188-72.811l-59.209-112.309c45.833-24.184 93.343-45.684 142.251-64.278l45.143 118.868c43.726-16.545 88.666-30.557 134.183-41.771l-30.389-123.581c50.062-12.334 101.187-21.742 153.297-28.058l15.315 126.561c46.521-5.682 93.472-8.514 140.367-8.514v-127.419c52.615 0 104.502 3.223 155.496 9.372l-15.24 126.561c46.541 5.422 92.729 13.898 138.262 25.078l30.352-123.581c50.918 12.538 100.625 28.096 149.012 46.484l-45.164 118.868c43.84 16.617 86.635 35.957 128.238 57.719l59.062-112.365c46.111 24.277 90.566 51.33 133.195 80.822l-72.121 104.354c38.529 26.68 75.438 55.782 110.65 86.896l84.102-94.926c38.846 34.431 75.623 71.189 110.09 110.073l-94.814 84.176c31.039 35.102 60.049 72.064 86.768 110.67l104.277-72.289c29.568 42.665 56.582 87.193 80.896 133.344l-112.363 59.153c21.684 41.509 41.061 84.269 57.68 128.089l118.904-45.125c18.391 48.311 33.965 98 46.486 148.92l-123.561 30.369c11.119 45.59 19.6 91.795 25.096 138.355l126.523-15.316c6.184 51.05 9.426 102.938 9.426 155.627-.002 711.97-579.281 1291.288-1291.291 1291.288zm1125.547-1175.421-46.969-10.602-21.408 93.23-21.371 93.156-21.387 93.155 46.951 10.658 21.406-93.193 129.17 29.195 21.408-93.231-129.189-29.158zm-97.607 372.809c-45.498-29.399-91.33 28.096-119.092 68.917l-42.031 61.855-13.918 20.42-41.584 61.184 156.967 101.504 55.484-81.604-115.141-74.47 30.258-44.49c10.152-14.943 41.361-12.055 44.955 10.34 3.633 22.395-9 47.603-9 47.603l104.447-20.644 62.379-91.759-86.936 17.142c.001-.001 4.624-55.727-26.788-75.998zm-363.178 355.612-19.713 14.59-58.93 43.765 65.432 177.274 78.645-58.314-52.355-141.857 131.07 83.449 78.643-58.354-163.881-104.279zm-1252.836 49.151-62.378-41.938-20.587-13.825-61.762-41.585-107.727 148.9 82.331 55.391 79.052-109.179 44.884 30.184c15.073 10.152 11.328 40.168-11.72 43.074-23.011 2.943-48.534-9.781-48.534-9.781l18.65 101.074 92.596 62.303-15.501-84.156s56.993 5.719 78.569-24.035c31.188-43.169-26.697-88.723-67.873-116.427zm1069.84-1381.391 24.984 68.619 39.311-61.595 73.092-2.684-46.521-56.415 20.102-70.369-68.08 26.921-60.66-40.95 4.471 73.07-57.607 45.051zm-1518.368 487.951c0 571.566 464.979 1036.639 1036.603 1036.639 571.604 0 1036.639-465.072 1036.639-1036.639v-.057h127.104c-.096-46.857-2.721-93.77-8.402-140.254l-126.246 15.09c-5.068-41.808-12.652-82.891-22.525-123.041l123.676-30.404c-11.238-45.554-25.189-90.418-41.83-134.164l-119.162 45.199c-14.926-39.182-32.121-77.188-51.461-113.93l112.943-59.358c-21.893-41.622-46.207-81.772-72.811-120.208l-105.062 72.605c-23.773-34.412-49.615-67.26-77.264-98.503l95.559-84.772c-31.133-35.082-64.314-68.283-99.377-99.323l-84.791 95.485c-31.17-27.668-64.072-53.471-98.449-77.264l72.59-105.117c-38.586-26.549-78.756-50.938-120.137-72.811l-59.395 113.036c-36.777-19.358-74.859-36.593-114.023-51.497l45.18-119.258c-43.836-16.545-88.758-30.557-134.199-41.771l-30.35 123.729c-40.15-9.91-81.232-17.457-123.059-22.523l15.146-126.283c-46.539-5.682-93.434-8.514-140.256-8.514v127.231h-.037c-42.292 0-84.026 2.627-125.052 7.565l-15.278-126.283c-46.429 5.422-92.69 13.898-138.224 25.078l30.349 123.729c-40.765 10.062-80.617 22.563-119.371 37.338l-45.16-119.295c-43.84 16.617-86.729 35.957-128.185 57.719l59.397 113.036c-37.039 19.487-72.773 41.192-106.999 64.892l-72.586-105.117c-38.548 26.68-75.494 55.782-110.578 86.896l84.719 95.485c-31.282 27.723-60.832 57.311-88.555 88.61l-95.597-84.772c-31.002 35.102-60.124 72.064-86.766 110.67l105.005 72.623c-23.698 34.226-45.368 69.942-64.894 106.943l-112.94-59.358c-21.835 41.509-41.118 84.269-57.737 128.089l119.237 45.236c-14.754 38.717-27.237 78.586-37.279 119.371l-123.729-30.443c-11.197 45.59-19.62 91.795-25.078 138.355l126.281 15.09c-4.975 41.045-7.584 82.834-7.584 125.22zm1036.602-976.478c538.424 0 976.498 438 976.498 976.479 0 538.365-438.074 976.46-976.498 976.46-538.459 0-976.424-438.095-976.424-976.46 0-538.479 437.965-976.479 976.424-976.479zm625.859 662.859 9.615 53.975 37.111-40.504 54.365 7.639-27.051-47.844 24.014-49.373-53.807 10.992-39.553-38.176-6.225 54.627-48.496 25.841zm-1318.416 92.615c.447 9.074 5.401 17.402 13.302 22.004l606.837 352.968-170.587 725.628c-2.795 11.869 2.869 24.184 13.693 29.848 3.987 2.105 8.16 3.037 12.407 3.037 7.397 0 14.719-3.111 19.973-8.998l818.171-919.99c4.918-5.57 7.322-12.893 6.67-20.4-.725-7.396-4.547-14.234-10.471-18.669l-441.707-336.702 101.559-467.363c2.234-10.731-2.217-21.818-11.42-27.91-9.094-6.092-21.148-5.925-30.184.373l-916.786 643.074c-7.565 5.215-11.832 13.972-11.457 23.1zm902.94-583.043-85.795 395.035c-2.014-1.377-3.988-2.812-6.02-4.172l-49.203-33.629 8.086-20.775c3.166-7.843 5.496-16.115 8.291-24.127l8.123-24.22c4.562-16.508 9.855-32.811 13.58-49.671 2.125-8.422 4.1-16.861 5.607-25.469 1.846-8.479 2.906-17.289 4.176-26.084l.166-.541c.094-.801-.316-1.545-1.098-2.012-.857-.335-1.975-.056-2.459.895l-88.033 183.033c-.633 1.453-.262 3.223 1.119 4.229l113.648 79.705 421.457 321.294-728.704 819.549 150.876-642.105c2.775-11.44-2.422-23.419-12.595-29.251l-587.758-341.883zm-213.887 1215.535c-.242.709.058 1.677.802 2.144.97.521 2.125.242 2.628-.746l.205-.354c8.068-14.438 15.742-29.082 22.898-43.84 7.191-14.773 13.842-29.66 20.809-44.49l19.268-44.938c6.109-15.055 11.887-30.221 17.811-45.406 6.111-14.998 11.531-30.275 16.973-45.609l16.191-45.868 14.773-46.3c4.77-15.501 10.229-30.704 14.363-46.391l.41-1.397c4.342-16.247-3.949-33.499-19.936-40.021l-74.842-30.629c-25.039-10.061-49.838-20.4-75.064-30.053l-75.455-29.158c-25.021-9.91-50.527-18.816-75.829-28.188-25.377-9.204-50.564-18.816-76.091-27.481-25.58-8.83-51.029-17.867-76.572-26.4-25.786-8.234-51.35-17.084-77.189-24.965-25.86-8.16-51.871-15.874-77.953-23.195l-.242-.131c-.858-.148-1.957.316-2.236 1.117-.465.969.02 2.143.933 2.646l592.751 250.16zm-225.603-1088.545 40.654-48.59 62.972 5.868-33.667-53.508 25.116-58.279-61.409 15.465-47.527-41.828-4.36 63.254-54.478 32.27 58.838 23.568zm-425.703 218.078 34.279 53.322 21.445-59.62 61.297-15.929-50.025-38.977 3.745-63.196-52.391 35.566-59.078-23.104 17.568 60.757-40.151 48.981zm107.389 938.043c22.32 27.779 46.521 55.558 72.977 83.095-21.405-11.607-53.117-24.295-90.359-24.668-68.973-.652-102.08 41.548-102.08 41.548s32.249 42.851 101.259 43.542c55.205.484 98.933-26.252 114.266-36.984 25.264 24.967 52.502 49.578 81.567 73.742-23.288-10.619-55.26-20.754-91.721-19.842-74.898 1.938-109.161 48.943-109.161 48.943s36.63 45.274 111.488 43.355c60.906-1.51 107.969-33.275 123.413-45.068 9.093 7.061 18.168 14.141 27.614 21.09l1.395 1.024c2.162 1.585 4.789 1.993 7.192 1.397 1.846-.465 3.577-1.545 4.789-3.204 2.758-3.837 1.919-9.185-1.862-11.979l-1.418-1.062c-26.102-19.208-50.787-38.865-74.151-58.836 13.154-13.992 42.796-50.306 50.1-100.46 9.558-64.892-26.011-101.503-26.011-101.503s-44.473 24.873-53.993 89.766c-5.887 40.205 4.51 76.053 13.303 97.534-34.933-30.909-66.828-62.471-95.837-94.312 14.384-12.949 43.558-43.652 54.569-88.182 14.849-59.992-15.073-97.57-15.073-97.57s-44.062 19.227-58.91 79.275c-8.385 33.871-3.765 65.619 1.88 86.858-28.914-33.108-54.812-66.347-78.045-99.267 14.384-10.192 43.261-34.357 57.758-72.514 19.785-51.98-2.906-88.777-2.906-88.777s-41.418 12.445-61.186 64.426c-10.881 28.711-10.434 56.881-7.844 76.426-21.222-31.412-40.021-62.396-56.693-92.578 14.252-10.023 43.54-34.282 58.202-72.773 19.769-51.981-2.963-88.74-2.963-88.74s-41.398 12.352-61.129 64.352c-9.8 25.73-10.45 51.086-8.625 70.146-15.612-30.015-29.083-58.986-40.747-86.598 13.712-10.768 41.603-36.461 54.235-75.604 16.992-52.987-7.639-88.536-7.639-88.536s-40.671 14.588-57.663 67.537c-5.981 18.595-7.342 36.686-6.634 52.41-15.296-40.653-26.456-77.207-34.522-107.855 8.962-17.532 22.859-52.187 18.855-92.485-5.815-58.278-44.473-82.294-44.473-82.294s-33.146 31.152-27.352 89.43c3.876 39.051 23.048 69.252 35.363 85.146 4.024 15.538 8.848 32.585 14.568 50.956-7.807-11.887-17.812-24.017-30.742-34.674-45.198-37.244-89.522-26.959-89.522-26.959s-1.565 45.498 43.651 82.686c37.077 30.5 81.456 35.697 96.287 36.592 9.95 26.866 21.613 55.482 35.457 85.518-12.969-14.756-31.655-31.394-56.585-42.256-53.677-23.457-93.472-1.416-93.472-1.416s10.917 44.175 64.631 67.557c42.704 18.612 85.5 12.408 101.243 9.092 14.158 28.469 30.182 57.906 48.31 87.957-14.737-13.525-36.033-28.766-63.309-36.87-56.117-16.656-92.97 10.023-92.97 10.023s16.283 42.517 72.438 59.19c44.9 13.34 86.821 1.752 101.82-3.428 16.918 26.345 35.604 53.025 55.949 79.816-18.428-12.11-44.921-25.246-76.89-28.878-63.143-7.267-97.479 28.226-97.479 28.226s25.392 42.348 88.534 49.578c49.095 5.624 90.679-13.324 106.853-22.061zm65.599-1100.507 32.477 77.841 42.068-73.052 84.1-6.875-56.637-62.602 19.525-82.088-77.004 34.467-71.989-43.914 8.979 83.952-63.998 54.907z" fill="#00acd0"/></svg>