<svg enable-background="new 0 0 2704 2704.018" height="2704.018" viewBox="0 0 2704 2704.018" width="2704" xmlns="http://www.w3.org/2000/svg"><path d="m1351.99 0c-745.574 0-1351.99 606.445-1351.99 1352.027 0 745.451 606.416 1351.99 1351.99 1351.99 745.47 0 1352.009-606.539 1352.009-1351.99.001-745.582-606.539-1352.027-1352.009-1352.027zm0 2643.317c-712.056 0-1291.243-579.318-1291.243-1291.29v-.037h127.438c.036-46.867 2.747-93.808 8.477-140.256l-126.506-15.314c6.278-52.149 15.715-103.356 28.039-153.429l123.544 30.406c11.225-45.57 25.17-90.426 41.78-134.199l-118.839-45.098c18.604-48.879 40.057-96.313 64.23-142.146l112.364 59.154c21.817-41.593 46.131-81.725 72.82-120.199l-104.334-72.242c29.632-42.805 61.771-83.7 96.229-122.547l94.86 84.138c31.114-35.064 64.343-68.236 99.436-99.323l-84.157-94.953c38.837-34.439 79.741-66.597 122.537-96.221l72.195 104.278c38.549-26.541 78.727-50.9 120.181-72.754l-59.2-112.347c45.87-24.173 93.333-45.665 142.221-64.268l45.162 118.867c43.736-16.535 88.675-30.564 134.182-41.743l-30.386-123.608c50.044-12.353 101.195-21.761 153.325-28.059l15.287 126.524c46.522-5.646 93.481-8.458 140.377-8.458v-127.473c52.614 0 104.483 3.25 155.487 9.399l-15.24 126.533c46.541 5.45 92.717 13.964 138.289 25.143l30.35-123.637c50.893 12.558 100.609 28.116 148.957 46.495l-45.152 118.885c43.83 16.619 86.652 35.949 128.229 57.748l59.061-112.393c46.113 24.296 90.604 51.311 133.213 80.821l-72.084 104.326c38.512 26.698 75.41 55.783 110.623 86.896l84.092-94.925c38.865 34.448 75.623 71.217 110.092 110.081l-94.832 84.167c31.057 35.083 60.057 72.083 86.764 110.651l104.336-72.261c29.531 42.656 56.545 87.147 80.869 133.297l-112.375 59.163c21.725 41.52 41.082 84.269 57.664 128.09l118.932-45.126c18.381 48.312 33.955 98.028 46.494 148.919l-123.57 30.406c11.104 45.563 19.6 91.76 25.096 138.337l126.551-15.314c6.15 51.021 9.391 102.938 9.391 155.607-.004 711.971-579.293 1291.289-1291.256 1291.289zm-1036.611-1291.29c0 571.548 464.96 1036.62 1036.611 1036.62 571.576 0 1036.628-465.072 1036.628-1036.62v-.037h127.074c-.102-46.867-2.729-93.808-8.393-140.256l-126.273 15.055c-5.066-41.809-12.621-82.863-22.535-122.993l123.713-30.398c-11.236-45.57-25.209-90.426-41.855-134.199l-119.146 45.198c-14.887-39.144-32.092-77.179-51.439-113.893l112.922-59.396c-21.873-41.593-46.223-81.725-72.83-120.199l-105.023 72.569c-23.781-34.394-49.605-67.259-77.281-98.466l95.541-84.754c-31.115-35.064-64.307-68.236-99.352-99.323l-84.801 95.485c-31.178-27.648-64.062-53.453-98.436-77.255l72.613-105.126c-38.613-26.541-78.791-50.9-120.189-72.754l-59.396 112.999c-36.768-19.377-74.822-36.601-114.012-51.516l45.18-119.23c-43.83-16.535-88.74-30.564-134.154-41.743l-30.387 123.721c-40.15-9.921-81.213-17.476-123.041-22.526l15.139-126.337c-46.57-5.646-93.436-8.458-140.247-8.458v127.222h-.019c-42.339 0-84.055 2.609-125.062 7.546l-15.297-126.311c-46.457 5.45-92.709 13.964-138.225 25.143l30.378 123.721c-40.802 10.052-80.654 22.535-119.389 37.263l-45.171-119.24c-43.812 16.619-86.737 35.949-128.183 57.748l59.405 112.98c-37.048 19.516-72.773 41.203-107.008 64.901l-72.577-105.128c-38.566 26.698-75.493 55.783-110.575 86.896l84.706 95.504c-31.272 27.714-60.831 57.291-88.545 88.544l-95.597-84.726c-31.021 35.083-60.132 72.083-86.756 110.651l104.986 72.615c-23.689 34.216-45.366 69.942-64.882 106.991l-112.925-59.407c-21.826 41.52-41.146 84.269-57.756 128.09l119.239 45.246c-14.737 38.742-27.221 78.595-37.281 119.369l-123.738-30.416c-11.16 45.563-19.609 91.76-25.078 138.337l126.291 15.055c-4.954 41.071-7.572 82.854-7.572 125.238zm1036.611-976.451c538.394 0 976.451 437.973 976.451 976.451 0 538.366-438.057 976.442-976.451 976.442-538.479 0-976.451-438.076-976.451-976.442 0-538.478 437.973-976.451 976.451-976.451zm-1005.115 1329.96-63.886-46.299 31.142-72.513-26.187-95.019-184.746 25.338 26.177 95.019 83.774-11.458-25.272 84.81 65.181 59.937-77.869 33.033 26.196 95.074 171.658-72.903zm417.021 539.931-62.367-41.957-20.588-13.806-61.762-41.585-107.754 148.9 82.35 55.391 79.024-109.179 44.901 30.182c15.081 10.154 11.355 40.151-11.691 43.076-23.037 2.943-48.562-9.781-48.562-9.781l18.659 101.074 92.598 62.284-15.521-84.139s57.012 5.701 78.54-24.034c31.245-43.169-26.652-88.721-67.827-116.426zm129.125 267.898 85.229 30.089 57.15-157.843-85.229-30.09zm372.688-96.323c-81.475-6.372-151.686 30.983-156.734 83.394-5.05 52.427 56.945 99.993 138.448 106.383 81.512 6.335 151.704-30.927 156.752-83.393 5.041-52.429-56.936-100.031-138.466-106.384zm-11.859 122.798c-23.959-1.825-42.189-15.892-40.708-31.319 1.499-15.408 22.152-26.363 46.093-24.48 23.988 1.844 42.19 15.836 40.7 31.281-1.481 15.369-22.097 26.419-46.085 24.518zm-753.621-536.486-14.654-19.32-43.95-57.775-186.843 57.496 58.604 77.114 149.459-46.056-90.854 123.152 58.595 77.113 113.585-153.93zm1345.786 314.942-107.354 34.282-54.85 104.577-28.6-77.879-95.373 30.462 61.25 166.897 95.373-30.461-28.57-77.896 112.037 51.197 107.336-34.28-120.07-54.87zm170.68-121.978-19.676 14.588-58.967 43.765 65.451 177.275 78.643-58.315-52.373-141.858 131.09 83.449 78.643-58.353-163.861-104.279zm363.195-355.613c-45.486-29.399-91.338 28.096-119.1 68.897l-42.041 61.856-13.881 20.438-41.611 61.166 156.967 101.52 55.494-81.604-115.133-74.469 30.268-44.491c10.154-14.942 41.342-12.054 44.957 10.341 3.605 22.376-9 47.602-9 47.602l104.41-20.661 62.414-91.759-86.961 17.14c0 .001 4.612-55.706-26.783-75.976zm97.61-372.809-46.979-10.583-21.379 93.212-21.381 93.155-21.406 93.156 46.961 10.657 21.396-93.193 129.18 29.195 21.379-93.23-129.16-29.159zm-1907.88-54.349c.605 4.192 1.49 8.552 2.655 13.415 38.39 148.379 145.332 262.961 284.228 308.327 9.875 89.244 47.9 206.714 174.388 251.894 100.32 35.791 201.729 47.156 270.265 47.473.14 0 24.071.094 24.071.094.493.371 22.06.279 22.06.279l21.221.092c.418-.371 24.377-.465 24.377-.465 68.592-.316 169.639-12.726 270.34-47.473 119.174-41.082 157.135-156.949 168.035-246.9 158.895-45.795 264.291-186.777 299.365-311.662l.428-1.621c.178-.615 3.279-13.377 3.279-13.377l.205-.931c39.199-187.253-7.77-408.173-125.592-590.964v-.009l.045-.326-5.682-8.793c-151.006-227.348-379.938-356.536-644.871-364.062l-.439-.02h-8.821l-.419.02c-266.398 7.601-496.167 136.062-647.033 361.724-.335.522-5.972 9.083-5.972 9.083-117.609 181.765-165.901 409.448-126.179 594.483 0-.002.046-.206.046-.281zm1078.001 515.413c-93.082 36.387-190.02 44.306-254.875 44.641l-24.238.037c0 .373-21.128.279-21.221.279-.494 0-21.566.094-21.566.094-.093-.373-24.425-.41-24.425-.41-64.762-.335-161.719-8.254-254.782-44.641-140.637-54.868-146.58-221.282-146.58-279.505 0-8.291.167-10.284.419-13.693 79.881-92.505 247.608-149.143 445.564-149.646 200.277.503 364.091 66.178 444.046 150.856.139 3.446.354 5.403.354 13.694-.001 58.224-1.966 223.426-142.696 278.294zm326.418-1046.225c31.645 56.891 60.645 120.525 77.869 170.457 23.643 74.525 36.051 150.605 36.051 224.012 0 35.604-2.943 70.548-8.822 104.428-79.871-88.619-125.619-213.447-125.619-348.29-.001-51.162 7.171-101.624 20.521-150.607zm-1215.396-48.924c139.725-202.726 349.326-318.081 591.624-325.067h6.661c241.74 6.94 451.154 123.822 590.795 329.306 1.77 2.795 3.521 5.683 5.262 8.543l-.213.652c-19.508 60.039-29.381 122.64-29.381 186.098 0 150.26 53.77 289.621 147.643 384.342-29.438 98.429-113.27 213.085-235.797 257.911.141-30.853-2.254-51.161-2.311-51.85l-.559-5.832-3.539-4.882c-87.707-112.942-266.818-185.66-480.423-186.218-216.16.558-403.338 71.768-487.905 186.367l-3.539 4.918-.531 5.775c-.065.672-2.534 18.558-2.963 46.225-106.653-42.591-188.473-134.236-220.863-250.793 94.852-94.657 149.143-234.558 149.143-385.964 0-64.372-10.153-127.708-30.146-188.231 2.328-3.829 4.685-7.602 7.042-11.3zm-103.497 209.972c17.653-48.841 45.386-108.852 75.382-162.631 13.713 49.373 21.119 100.338 21.119 152.189 0 135.784-46.178 261.069-126.729 349.632-5.943-33.499-8.906-68.367-8.906-104.064 0-76.63 13.554-156.949 39.134-235.126zm700.178 272.128c219.262 0 397.656-173.969 397.656-387.809 0-213.783-178.395-387.714-397.656-387.714-219.213 0-397.542 173.931-397.542 387.714 0 213.84 178.328 387.809 397.542 387.809zm0-745.406c202.652 0 367.539 160.396 367.539 357.597 0 197.23-164.887 357.69-367.539 357.69-202.613 0-367.433-160.46-367.433-357.69 0-197.201 164.82-357.597 367.433-357.597zm164.97 982.31c-39.953-3.726-39.918 60.123-39.918 133.81 0 73.631 5.945 133.679 41.018 133.306 36.768-.41 41.5-62.544 41.5-136.138 0-73.648-7.889-127.81-42.6-130.978zm14.793 90.772c-3.697 9.539-9.389 13.041-15.668 13.041-6.316.037-11.887-3.502-15.65-13.097-2.916-7.435-4.76-19.544-4.797-29.941-.047-10.657 1.49-22.506 4.508-30.088 3.689-9.279 9.465-13.08 15.66-13.08 6.24-.019 12.193 4.565 15.947 14.011 3 7.49 4.473 18.482 4.5 29.027.047 10.509-1.593 22.637-4.5 30.127zm-348.374-90.772c-34.7 3.168-42.591 57.329-42.591 130.978 0 73.594 4.723 135.728 41.473 136.138 35.093.373 41.026-59.675 41.026-133.306 0-73.687.056-137.535-39.908-133.81zm16.535 90.716c-3.773 9.595-9.344 13.134-15.659 13.097-6.298 0-11.98-3.502-15.688-13.041-2.887-7.49-4.536-19.618-4.489-30.127.047-10.545 1.509-21.537 4.489-29.027 3.773-9.445 9.726-14.029 15.968-14.011 6.186 0 11.961 3.801 15.659 13.08 2.999 7.582 4.555 19.431 4.518 30.088-.047 10.397-1.892 22.507-4.798 29.941zm183.75 495.049-34.98-71.078-35.026 71.078-78.26 11.309 56.555 55.242-13.274 78.008 70.006-36.758 70.044 36.758-13.387-78.008 56.592-55.242zm353.378-63.868-60.244 15.055-46.561-41.045-4.285 61.948-53.424 31.581 57.57 23.232 13.553 60.607 39.871-47.64 61.811 5.868-32.969-52.651zm-669.969-25.99-46.559 41.045-60.226-15.055 24.649 56.956-32.959 52.651 61.837-5.868 39.861 47.64 13.536-60.607 57.589-23.232-53.443-31.581zm1077.321-415.942c14.318-47.044-5.963-78.717-5.963-78.717s-33.844 12.801-48.16 59.806c-9.781 32.141-5.18 62.88-1.287 79.127-11.084 26.327-25.123 55.204-42.852 85.443 3.131-12.782 5.105-27.779 3.662-44.063-4.164-46.82-33.043-66.141-33.043-66.141s-24.975 24.816-20.801 71.637c3.092 34.692 20.334 61.018 29.064 72.364-14.355 21.631-30.631 43.597-49.076 65.415 5.152-15.614 9.969-38.307 6.475-63.365-6.418-46.467-36.209-64.223-36.209-64.223s-23.736 26.232-17.299 72.699c4.863 34.859 23.791 60.477 32.93 71.078-19.451 21.632-41.109 43.038-65.189 63.682 5.887-15.334 13.014-41.324 8.971-70.426-6.438-46.486-36.238-64.24-36.238-64.24s-23.717 26.27-17.262 72.717c4.891 35.307 24.174 60.98 33.191 71.396-11.133 9.091-22.637 18.128-34.775 26.922l7.527 11.979c26.43-19.06 50.305-39.182 72.141-59.75 10.814 9.203 37.736 28.821 72.895 31.374 46.074 3.28 69.773-25.561 69.773-25.561s-19.908-31.99-65.992-35.269c-22.775-1.659-43.02 4.396-57.709 10.86 18.816-19.097 35.865-38.528 51.254-57.999 12.156 5.738 43.457 17.906 78.744 10.453 45.33-9.596 61.223-44.026 61.223-44.026s-26.969-25.394-72.252-15.78c-18.967 4.006-34.803 12.8-46.857 21.688 14.85-20.755 27.928-41.361 39.414-61.391 13.666 1.92 46.252 4.006 77.691-13.209 41.119-22.506 47.576-60.291 47.576-60.291s-32.373-16.487-73.52 6.019c-10.396 5.72-19.264 12.8-26.744 20.158 5.924-12.278 11.234-24.127 16.021-35.529 12.074-10.62 32.838-32.567 42.676-64.837zm-1377.263 313.34c21.808 20.568 45.692 40.69 72.13 59.75l7.527-11.979c-12.157-8.794-23.662-17.831-34.794-26.922 9.036-10.415 28.311-36.089 33.201-71.396 6.455-46.447-17.234-72.717-17.234-72.717s-29.828 17.754-36.274 64.24c-4.006 29.102 3.111 55.092 8.989 70.426-24.09-20.644-45.749-42.05-65.19-63.682 9.129-10.602 28.059-36.219 32.912-71.078 6.446-46.467-17.28-72.699-17.28-72.699s-29.792 17.756-36.219 64.223c-3.466 25.059 1.322 47.751 6.502 63.365-18.473-21.818-34.747-43.784-49.103-65.415 8.738-11.347 25.99-37.672 29.064-72.364 4.192-46.82-20.792-71.637-20.792-71.637s-28.879 19.32-33.043 66.141c-1.453 16.284.513 31.281 3.652 44.063-17.719-30.239-31.767-59.116-42.853-85.443 3.895-16.247 8.523-46.986-1.258-79.127-14.346-47.005-48.18-59.806-48.18-59.806s-20.289 31.673-5.962 78.717c9.827 32.27 30.592 54.217 42.684 64.837 4.779 11.402 10.089 23.251 16.005 35.529-7.453-7.358-16.35-14.438-26.745-20.158-41.119-22.506-73.52-6.019-73.52-6.019s6.456 37.785 47.575 60.291c31.44 17.215 64.026 15.129 77.692 13.209 11.514 20.029 24.574 40.636 39.433 61.391-12.082-8.888-27.919-17.682-46.876-21.688-45.283-9.613-72.252 15.78-72.252 15.78s15.911 34.431 61.213 44.026c35.306 7.453 66.598-4.715 78.764-10.453 15.39 19.471 32.437 38.902 51.235 57.999-14.672-6.464-34.915-12.52-57.691-10.86-46.094 3.278-65.982 35.269-65.982 35.269s23.689 28.841 69.774 25.561c35.13-2.553 62.052-22.171 72.896-31.374z" fill="#00acd0"/></svg>